<?xml version="1.0" standalone="no"?>
<!DOCTYPE svg PUBLIC "-//W3C//DTD SVG 20010904//EN"
 "http://www.w3.org/TR/2001/REC-SVG-20010904/DTD/svg10.dtd">
<svg version="1.0" xmlns="http://www.w3.org/2000/svg"
 width="626.000000pt" height="626.000000pt" viewBox="0 0 626.000000 626.000000"
 preserveAspectRatio="xMidYMid meet">

<g transform="translate(0.000000,626.000000) scale(0.100000,-0.100000)"
fill="#000000" stroke="none">
<path d="M2938 5485 c-151 -29 -271 -87 -348 -171 -91 -99 -117 -243 -88 -496
6 -57 12 -111 12 -121 1 -14 -22 -27 -99 -56 -920 -350 -1449 -1317 -1250
-2286 121 -593 516 -1110 1055 -1380 181 -90 393 -160 600 -197 102 -18 519
-18 620 0 211 38 373 89 558 178 564 268 972 789 1097 1399 124 605 -31 1226
-426 1700 -212 254 -508 466 -809 580 -41 16 -76 29 -77 30 -2 1 4 36 12 78 8
42 17 125 21 184 17 305 -99 467 -391 544 -105 28 -371 36 -487 14z m374 -170
c118 -20 191 -51 249 -103 68 -61 83 -114 77 -278 -2 -68 -7 -126 -11 -130 -3
-4 -14 2 -24 13 -78 88 -274 183 -376 183 -26 0 -37 20 -37 73 0 37 -16 26
-24 -17 -9 -45 -19 -52 -96 -60 -122 -14 -111 -18 -131 49 l-17 60 -1 -72 -1
-73 -52 -26 c-29 -15 -83 -50 -119 -80 -63 -50 -67 -52 -73 -31 -10 37 -7 260
5 300 27 97 155 171 349 200 62 10 205 6 282 -8z m67 -640 c460 -88 792 -408
887 -855 22 -105 25 -335 5 -432 l-13 -68 -43 0 c-24 0 -56 -5 -71 -10 -24
-10 -30 -7 -62 31 -55 64 -138 112 -310 179 -343 133 -449 187 -554 279 -97
86 -106 104 -118 237 -16 171 -19 180 -36 119 -37 -127 -89 -275 -117 -328
-37 -70 -133 -162 -220 -211 -35 -20 -131 -63 -213 -97 -190 -77 -255 -112
-319 -171 -50 -46 -53 -47 -86 -36 -19 6 -39 12 -46 14 -31 7 -53 266 -34 407
64 481 397 836 879 937 113 24 356 26 471 5z m-1440 -591 c-76 -193 -109 -413
-91 -598 l11 -108 -39 -49 c-55 -70 -73 -133 -68 -233 8 -152 90 -266 247
-344 46 -23 89 -42 96 -42 8 0 17 -10 21 -22 5 -17 1 -26 -17 -38 -225 -147
-437 -369 -565 -591 -26 -44 -50 -77 -54 -72 -4 4 -24 49 -43 98 -249 631
-137 1332 298 1854 65 78 224 235 231 228 2 -2 -11 -39 -27 -83z m2585 -145
c364 -432 504 -995 390 -1557 -19 -94 -84 -293 -117 -358 l-24 -47 -33 59
c-110 196 -329 440 -507 564 -96 67 -115 96 -71 108 13 3 58 23 100 44 100 50
170 118 211 205 29 62 32 77 32 164 0 88 -3 101 -31 157 -29 56 -31 64 -22
109 6 26 10 118 10 203 1 168 -18 285 -67 429 -14 41 -25 77 -25 80 0 11 85
-77 154 -160z m-1366 -181 c60 -56 167 -127 252 -167 l60 -29 -24 -15 c-13 -9
-28 -29 -34 -45 l-10 -29 69 -6 c69 -6 148 -34 181 -64 10 -9 18 -13 18 -9 0
17 -28 72 -43 85 -37 30 -12 27 86 -10 151 -58 245 -107 294 -152 24 -22 43
-43 43 -47 0 -4 -45 -28 -100 -53 l-100 -46 -52 52 c-82 82 -132 102 -253 102
-90 0 -105 -3 -153 -28 -72 -38 -132 -100 -162 -167 l-24 -55 -77 0 -77 0 -12
35 c-33 91 -107 162 -209 201 -45 17 -71 20 -136 17 -100 -6 -161 -33 -233
-105 l-53 -53 -100 47 -100 46 32 33 c18 18 62 49 98 68 60 31 282 126 296
126 3 0 -3 -12 -14 -27 -11 -16 -22 -39 -26 -52 l-7 -23 28 21 c42 30 140 61
195 61 l48 0 -11 30 c-5 17 -21 39 -34 49 l-25 19 43 30 c72 50 156 146 189
217 l31 65 27 -37 c16 -21 51 -59 79 -85z m-348 -490 c78 -24 152 -93 186
-174 24 -57 23 -167 -3 -226 -30 -65 -94 -132 -156 -159 -76 -34 -183 -33
-252 3 -185 96 -228 324 -90 476 78 87 195 116 315 80z m867 -14 c184 -87 226
-333 81 -481 -117 -120 -316 -118 -429 4 -59 64 -82 123 -82 208 1 107 42 186
128 245 91 63 200 71 302 24z m-1573 2 c32 -13 33 -16 39 -82 12 -121 13 -117
-35 -109 l-43 6 45 -30 c24 -17 48 -39 52 -51 7 -20 -6 -28 -17 -10 -3 6 -24
10 -46 10 -29 0 -47 -7 -66 -26 -24 -24 -26 -25 -45 -7 -96 87 -95 247 2 295
42 22 70 22 114 4z m2160 0 c83 -35 102 -164 38 -258 -48 -69 -66 -76 -101
-39 -22 24 -38 31 -65 31 -48 0 -45 14 9 46 25 14 45 28 45 31 0 3 -19 2 -42
-2 l-41 -7 6 68 c4 38 7 79 7 92 0 16 9 27 33 37 41 18 69 18 111 1z m-1963
-131 l71 -59 -5 -46 c-17 -145 69 -294 206 -356 93 -42 193 -39 308 10 14 6
16 -4 16 -86 1 -74 6 -109 28 -176 15 -45 29 -81 31 -79 2 2 0 28 -6 57 -22
115 -3 302 38 373 19 32 23 33 47 7 42 -47 141 -46 191 1 24 22 24 22 39 3 36
-47 50 -117 50 -249 0 -71 -3 -146 -7 -165 -6 -34 -6 -34 13 8 32 68 52 179
45 250 -3 34 -4 62 -2 62 2 0 25 -10 52 -22 73 -33 190 -31 266 4 81 37 149
105 183 181 23 51 29 77 29 145 l1 83 70 59 c39 33 72 60 75 60 7 0 3 -42 -16
-185 -40 -297 -133 -484 -286 -577 -35 -22 -140 -58 -168 -58 -19 0 -20 2 -6
35 8 19 13 35 10 35 -3 0 -30 -23 -60 -52 -73 -69 -136 -114 -214 -152 -60
-29 -73 -31 -170 -31 -97 0 -110 2 -170 31 -77 38 -138 80 -214 152 -31 28
-58 52 -61 52 -2 0 3 -16 11 -35 14 -33 13 -35 -6 -35 -32 0 -137 38 -179 64
-64 40 -142 135 -182 221 -43 93 -83 249 -99 385 -6 52 -13 108 -15 123 -3 16
-1 27 5 25 5 -2 41 -30 81 -63z m892 -102 c4 -2 7 -28 7 -58 0 -30 5 -66 10
-81 30 -78 -107 -121 -155 -48 -9 14 -12 30 -8 37 4 6 10 43 13 81 5 64 7 71
30 77 23 7 86 2 103 -8z m-858 -516 c23 -33 31 -58 37 -112 28 -280 28 -280
13 -291 -10 -8 -15 -30 -15 -68 0 -48 3 -56 19 -56 16 0 19 -12 25 -97 5 -67
13 -104 23 -115 15 -17 13 -18 -25 -18 l-42 0 0 -60 0 -60 60 0 60 0 0 45 0
45 70 -35 c148 -74 330 -109 570 -109 240 0 422 35 570 109 l70 35 0 -45 0
-45 60 0 60 0 0 38 c0 20 3 47 6 60 6 21 3 22 -41 22 -45 0 -47 1 -33 18 11
11 18 49 23 115 7 86 10 97 26 97 17 0 19 8 19 60 0 46 -3 60 -15 60 -12 0
-14 16 -9 98 3 53 13 120 21 149 9 29 13 65 10 80 -4 21 3 40 26 75 18 26 37
48 42 48 6 0 42 -19 80 -43 l70 -42 3 -67 c3 -60 5 -67 25 -70 19 -3 23 -15
39 -98 24 -135 25 -130 -22 -130 l-40 0 0 -59 0 -60 52 -3 52 -3 38 -215 c65
-374 64 -367 37 -396 -43 -47 -55 -47 -51 -3 l4 39 -66 0 -66 0 0 -59 0 -60
33 -3 c32 -3 32 -3 -38 -49 -147 -95 -291 -162 -467 -215 -104 -31 -108 -31
-108 6 l0 30 -60 0 -60 0 0 -44 c0 -43 0 -44 -40 -50 -22 -3 -74 -9 -115 -13
l-75 -6 0 57 0 56 -60 0 -60 0 0 -56 0 -57 -75 6 c-41 4 -93 10 -115 13 -40 6
-40 7 -40 50 l0 44 -60 0 -60 0 0 -30 c0 -37 -3 -37 -112 -5 -155 45 -341 132
-478 223 l-55 37 33 3 32 3 0 60 0 59 -64 0 -64 0 3 -35 c2 -21 -1 -35 -8 -35
-22 0 -67 54 -66 79 0 14 21 148 48 296 l47 270 52 3 52 3 0 60 0 59 -40 0
c-47 0 -46 -6 -21 130 15 84 20 95 39 98 20 3 22 9 22 67 l0 63 72 46 c39 25
76 46 82 46 6 -1 24 -20 41 -43z m470 -262 c135 -97 271 -137 391 -115 82 14
176 55 258 114 43 31 77 46 111 51 l48 8 -33 -59 c-105 -187 -242 -301 -397
-327 -117 -20 -238 22 -344 121 -64 59 -132 148 -169 221 l-22 44 47 -6 c32
-5 65 -20 110 -52z m-36 -236 c94 -94 170 -139 268 -159 55 -12 56 -13 32 -25
-106 -56 -257 -72 -328 -35 -83 42 -132 139 -146 292 -4 43 -4 94 0 114 l6 37
41 -69 c23 -38 80 -107 127 -155z m897 88 c-12 -161 -61 -263 -147 -307 -70
-36 -234 -19 -328 34 -24 13 -23 14 29 25 103 22 178 67 275 165 50 51 105
118 125 153 32 56 36 60 43 40 5 -12 6 -61 3 -110z"/>
<path d="M2609 3041 c-23 -23 -39 -44 -35 -48 3 -4 12 -1 18 5 15 15 58 16 58
2 0 -19 40 -50 64 -50 14 0 33 11 44 24 15 20 22 22 32 13 10 -10 11 -7 5 13
-12 43 -49 72 -99 77 -43 5 -48 3 -87 -36z"/>
<path d="M3525 3071 c-26 -11 -51 -40 -60 -71 -6 -20 -5 -23 5 -13 10 9 17 7
32 -13 32 -40 78 -28 113 29 9 16 13 16 39 2 44 -23 43 -10 -1 35 -42 41 -80
50 -128 31z"/>
<path d="M3211 2624 c-52 -28 -136 -32 -181 -9 -40 21 -38 3 5 -39 64 -65 146
-55 201 25 15 22 25 41 23 43 -2 2 -24 -7 -48 -20z"/>
<path d="M2010 1690 l0 -60 65 0 65 0 0 60 0 60 -65 0 -65 0 0 -60z"/>
<path d="M4120 1691 l0 -59 65 -4 65 -3 0 63 0 62 -65 0 -65 0 0 -59z"/>
<path d="M2370 1338 l0 -63 60 0 60 0 0 63 0 62 -60 0 -60 0 0 -62z"/>
<path d="M2720 1341 l0 -59 60 -4 60 -3 0 63 0 62 -60 0 -60 0 0 -59z"/>
<path d="M3070 1338 l0 -63 60 0 60 0 0 63 0 62 -60 0 -60 0 0 -62z"/>
<path d="M3420 1336 l0 -61 60 0 60 0 0 63 0 63 -60 -2 -60 -2 0 -61z"/>
<path d="M3770 1338 l0 -63 59 3 59 4 4 59 3 59 -62 0 -63 0 0 -62z"/>
</g>
</svg>
